<?xml version="1.0" encoding="UTF-8"?>
<svg id="Layer_1" data-name="Layer 1" xmlns="http://www.w3.org/2000/svg" xmlns:xlink="http://www.w3.org/1999/xlink" viewBox="0 0 32 32">
  <defs>
    <style>
      .cls-1 {
        fill: none;
      }

      .cls-2 {
        fill: #102b4d;
      }

      .cls-3 {
        fill: #008a60;
        isolation: isolate;
        opacity: .4;
      }

      .cls-4 {
        clip-path: url(#clippath);
      }
    </style>
    <clipPath id="clippath">
      <rect class="cls-1" x=".38" y="4.15" width="31" height="26.87"/>
    </clipPath>
  </defs>
  <g id="Group_50" data-name="Group 50">
    <g class="cls-4">
      <g id="Group_49" data-name="Group 49">
        <path id="Path_78" data-name="Path 78" class="cls-2" d="M10.68,28.54c-.25,0-.45-.2-.45-.45,0-.13.06-.25.16-.34.92-.79,2.1-1.2,3.31-1.13l5.13.28c.8.04,1.59-.19,2.23-.66l8.58-6.28c.23-.15.42-.34.57-.56.4-.56.35-1.32-.12-1.82-.42-.5-1.14-.62-1.7-.28l-5.5,3.41c-.21.13-.49.07-.62-.14s-.07-.49.14-.62l5.43-3.36.11-.06c.92-.53,2.1-.34,2.8.46.75.8.84,2.03.2,2.93-.21.31-.48.58-.8.79l-8.57,6.27c-.81.59-1.8.89-2.81.83l-5.13-.28c-.98-.05-1.94.27-2.68.91-.08.07-.18.11-.29.11Z"/>
        <path id="Path_79" data-name="Path 79" class="cls-2" d="M2.83,23.97c-.25,0-.45-.2-.45-.45,0-.11.04-.21.11-.29l3.65-4.35c1.67-1.93,4.59-2.15,6.52-.48.19.16.36.34.52.53l.23.28c.17.2.43.32.69.32h5.84c1.11-.02,2.02.86,2.04,1.97s-.86,2.02-1.97,2.04c-.02,0-.05,0-.07,0h-6.47c-.25,0-.45-.2-.45-.45s.2-.45.45-.45h6.47c.61,0,1.11-.5,1.11-1.11,0-.61-.5-1.11-1.11-1.11h-5.84c-.53,0-1.04-.23-1.38-.64l-.23-.28c-1.33-1.58-3.68-1.78-5.26-.46-.15.13-.29.27-.42.42l-3.65,4.34c-.08.1-.21.16-.34.16Z"/>
        <path id="Path_80" data-name="Path 80" class="cls-2" d="M9.93,31.02c-.25,0-.45-.2-.45-.45,0-.1.03-.19.09-.27.25-.33.19-.79-.13-1.04l-7.2-5.64c-.33-.25-.8-.2-1.05.13,0,0,0,0,0,0-.15.2-.43.24-.63.09-.2-.15-.24-.43-.09-.63.55-.72,1.58-.87,2.3-.32,0,0,.01.01.02.02l7.2,5.64c.7.56.83,1.57.3,2.28-.08.11-.22.18-.36.18Z"/>
        <path id="Path_81" data-name="Path 81" class="cls-2" d="M30.35,15.7c-.25,0-.45-.2-.45-.45h0v-2.16c0-.51-.41-.92-.92-.92-.22,0-.44.07-.61.22-.55.43-1.22.65-1.92.65-.35,0-.71-.06-1.04-.17-.23-.08-.36-.33-.28-.57.08-.23.33-.36.57-.28.24.08.5.12.75.12.49,0,.97-.15,1.36-.45.33-.26.73-.41,1.15-.41,1.01,0,1.83.8,1.84,1.81,0,0,0,0,0,0v2.16c0,.25-.2.45-.45.45,0,0,0,0,0,0Z"/>
        <path id="Ellipse_16" data-name="Ellipse 16" class="cls-2" d="M24.09,8.14c.31-1.31,1.62-2.12,2.93-1.81s2.12,1.62,1.81,2.93-1.62,2.12-2.93,1.81h0c-1.31-.31-2.12-1.62-1.81-2.93ZM27.95,9.06c.2-.83-.32-1.66-1.14-1.85s-1.66.32-1.85,1.14.32,1.66,1.14,1.85c.83.19,1.66-.32,1.85-1.14Z"/>
        <path id="Path_82" data-name="Path 82" class="cls-2" d="M23.88,16.95c-.25,0-.45-.2-.45-.45v-4.2c0-.7-.57-1.26-1.26-1.26-.3,0-.6.1-.83.29-1.37,1.04-3.27,1.04-4.65,0-.23-.19-.51-.29-.81-.29-.7-.01-1.28.55-1.29,1.25,0,0,0,0,0,.01v4.2c0,.25-.2.45-.45.45s-.45-.2-.45-.45v-4.2c0-1.19.97-2.15,2.16-2.16.51,0,1,.17,1.39.49,1.05.78,2.48.78,3.53,0,.39-.31.87-.49,1.37-.49,1.2,0,2.17.95,2.18,2.15,0,0,0,0,0,0v4.2c0,.25-.2.45-.45.45Z"/>
        <path id="Line_41" data-name="Line 41" class="cls-2" d="M16.48,18.24c-.25,0-.45-.2-.45-.45h0v-2.92c0-.25.2-.45.45-.45h0c.25,0,.45.2.45.45h0v2.92c0,.25-.2.45-.45.45h0Z"/>
        <path id="Line_42" data-name="Line 42" class="cls-2" d="M21.77,18.24c-.25,0-.45-.2-.45-.45h0v-2.92c0-.25.2-.45.45-.45h0c.25,0,.45.2.45.45h0v2.92c0,.25-.2.45-.45.45h0Z"/>
        <path id="Ellipse_17" data-name="Ellipse 17" class="cls-2" d="M19.02,4.15c1.62,0,2.93,1.31,2.93,2.93s-1.31,2.93-2.93,2.93-2.93-1.31-2.93-2.93h0c0-1.62,1.31-2.92,2.93-2.93ZM19.02,9.11c1.12,0,2.03-.91,2.03-2.03s-.91-2.03-2.03-2.03-2.03.91-2.03,2.03h0c0,1.12.91,2.03,2.03,2.03Z"/>
        <path id="Path_83" data-name="Path 83" class="cls-2" d="M7.68,16.98c-.25,0-.45-.2-.45-.45v-3.44c0-1,.81-1.82,1.82-1.82.43,0,.84.14,1.17.41.39.3.87.46,1.36.45.26,0,.51-.04.76-.12.23-.08.49.04.57.28.08.23-.04.49-.28.57-.34.11-.69.17-1.04.17-.69,0-1.37-.22-1.92-.65-.17-.14-.38-.21-.59-.22-.51,0-.93.4-.94.91,0,0,0,0,0,0v3.44c0,.25-.2.45-.45.45,0,0,0,0,0,0Z"/>
        <path id="Ellipse_18" data-name="Ellipse 18" class="cls-2" d="M11.58,6.27c1.34,0,2.43,1.09,2.43,2.43,0,1.34-1.09,2.43-2.43,2.43-1.34,0-2.43-1.09-2.43-2.43,0-1.34,1.09-2.43,2.43-2.43ZM11.58,10.24c.85,0,1.54-.69,1.54-1.54,0-.85-.69-1.54-1.54-1.54-.85,0-1.54.69-1.54,1.54,0,.85.69,1.54,1.54,1.54Z"/>
      </g>
    </g>
  </g>
  <circle id="Ellipse_16-2" data-name="Ellipse 16-2" class="cls-3" cx="18.77" cy="9.56" r="8.58"/>
</svg>