<?xml version="1.0" encoding="UTF-8"?>
<svg id="Layer_1" data-name="Layer 1" xmlns="http://www.w3.org/2000/svg" xmlns:xlink="http://www.w3.org/1999/xlink" viewBox="0 0 32 32">
  <defs>
    <style>
      .cls-1 {
        fill: none;
      }

      .cls-2 {
        fill: #0e2b4c;
      }

      .cls-3 {
        clip-path: url(#clippath-1);
      }

      .cls-4 {
        fill: #008a60;
        isolation: isolate;
        opacity: .4;
      }

      .cls-5 {
        clip-path: url(#clippath);
      }
    </style>
    <clipPath id="clippath">
      <rect class="cls-1" x="1.67" y="3.49" width="29.83" height="26.57"/>
    </clipPath>
    <clipPath id="clippath-1">
      <rect class="cls-1" x="1.67" y="3.49" width="29.83" height="26.57"/>
    </clipPath>
  </defs>
  <g id="Group_43" data-name="Group 43">
    <g id="Group_40" data-name="Group 40">
      <g class="cls-5">
        <g id="Group_39" data-name="Group 39">
          <path id="Path_78" data-name="Path 78" class="cls-2" d="M24.18,30.06H6.84c-.23,0-.42-.19-.42-.42v-10.82c0-.23.19-.42.42-.42s.42.19.42.42v10.4h16.5v-1.39c0-.23.19-.42.42-.42.23,0,.42.19.42.42v1.81c0,.23-.19.42-.42.42h0Z"/>
        </g>
      </g>
    </g>
    <path id="Path_79" data-name="Path 79" class="cls-2" d="M24.18,10.97c-.23,0-.42-.19-.42-.42h0v-3.78h-8.25c-.23,0-.42-.19-.42-.42s.19-.42.42-.42h8.67c.23,0,.42.19.42.42h0v4.2c0,.23-.19.42-.42.42Z"/>
    <path id="Line_41" data-name="Line 41" class="cls-2" d="M18.82,17.32h-5.82c-.23,0-.42-.19-.42-.42s.19-.42.42-.42h5.82c.23,0,.42.19.42.42s-.19.42-.42.42Z"/>
    <path id="Line_42" data-name="Line 42" class="cls-2" d="M19.85,20.46h-1.04c-.23,0-.42-.19-.42-.42s.19-.42.42-.42h1.04c.23,0,.42.19.42.42,0,.23-.19.42-.42.42h0Z"/>
    <path id="Line_43" data-name="Line 43" class="cls-2" d="M16.11,20.46h-5.6c-.23,0-.42-.19-.42-.42s.19-.42.42-.42h5.6c.23,0,.42.19.42.42s-.19.42-.42.42Z"/>
    <path id="Line_44" data-name="Line 44" class="cls-2" d="M17.43,23.61h-6.92c-.23,0-.42-.19-.42-.42s.19-.42.42-.42h6.92c.23,0,.42.19.42.42h0c0,.23-.19.42-.42.42h0Z"/>
    <g id="Group_42" data-name="Group 42">
      <g class="cls-3">
        <g id="Group_41" data-name="Group 41">
          <path id="Path_80" data-name="Path 80" class="cls-2" d="M15.5,28.12c-.22,0-.4-.16-.42-.38-.03-.52.32-.98.82-1.09.38-.08.77-.04,1.13.11l.22.08c.18.08.36.14.55.17.47.05.93-.21,1.12-.64.09-.21.33-.32.55-.23.21.09.32.33.23.55h0c-.34.79-1.16,1.26-2.02,1.15-.25-.04-.5-.12-.74-.22l-.2-.08c-.2-.09-.41-.12-.63-.09-.11.03-.21.13-.2.19.02.23-.14.44-.37.46-.01,0-.03,0-.04,0h0Z"/>
          <path id="Path_81" data-name="Path 81" class="cls-2" d="M21.07,26.84c-.23,0-.41-.18-.42-.41l-.02-.84c-.07-1.97.29-3.94,1.05-5.76l5.14-12.17c.18-.37.56-.59.97-.57.21,0,.41.04.61.13l1.26.53c.61.18.96.82.78,1.44l-5.2,12.32c-.73,1.71-1.81,3.26-3.16,4.54l-.71.68c-.08.07-.18.12-.29.12ZM27.78,7.93c-.07,0-.14.01-.19.05l-5.14,12.17c-.7,1.68-1.04,3.49-.99,5.3l.02-.02c1.27-1.2,2.28-2.65,2.96-4.26l5.2-12.32s-.07-.22-.33-.33l-1.26-.53c-.09-.04-.18-.06-.28-.06Z"/>
          <path id="Path_82" data-name="Path 82" class="cls-2" d="M29.23,16.46c-.23,0-.42-.19-.42-.42,0-.06.01-.11.03-.16l1.81-4.28s0-.1-.05-.11l-2.87-1.15c-.22-.09-.32-.33-.23-.55s.33-.32.55-.23l2.88,1.15c.48.2.7.74.5,1.22,0,0,0,0,0,0l-1.81,4.28c-.07.15-.22.25-.39.25Z"/>
          <path id="Path_83" data-name="Path 83" class="cls-2" d="M2.74,11.38s-.04,0-.06,0l-.65-.1c-.21-.03-.36-.21-.36-.42v-1.71c0-.21.15-.39.36-.42l1.17-.17c.11-.37.26-.73.45-1.07l-.7-.95c-.12-.17-.11-.4.04-.55l1.21-1.21c.15-.15.38-.16.55-.04l.48.36c.19.13.25.39.12.58-.13.19-.39.25-.58.12-.01,0-.03-.02-.04-.03l-.19-.14-.69.69.66.88c.1.14.11.33.02.47-.26.41-.45.87-.56,1.35-.04.17-.18.3-.35.32l-1.08.16v.98l.29.04c.23.03.39.25.35.48-.03.21-.21.36-.42.36Z"/>
          <path id="Path_84" data-name="Path 84" class="cls-2" d="M6.47,5.97c-.23,0-.42-.19-.42-.42,0-.17.11-.33.27-.39.14-.06.29-.1.44-.15l.17-1.17c.03-.21.21-.36.42-.36h1.71c.21,0,.39.15.42.36l.17,1.17c.12.04.25.08.37.12.22.08.33.32.24.54-.08.21-.32.32-.54.25-.18-.07-.36-.12-.54-.16-.17-.04-.3-.18-.32-.35l-.16-1.08h-.98l-.16,1.08c-.03.17-.15.31-.32.35-.21.05-.41.11-.6.18-.05.02-.1.03-.15.03Z"/>
          <path id="Path_85" data-name="Path 85" class="cls-2" d="M13.78,11.36c-.23,0-.42-.19-.42-.42,0-.21.15-.38.36-.41l.16-.02v-.98l-1.08-.16c-.17-.03-.31-.15-.35-.32-.11-.48-.3-.93-.56-1.35-.09-.15-.08-.34.02-.47l.65-.88-.69-.69-.26.19c-.19.14-.45.1-.59-.09-.14-.19-.1-.45.09-.59h0l.55-.41c.17-.12.4-.11.55.04l1.21,1.21c.15.15.16.38.04.55l-.7.95c.19.34.34.7.45,1.07l1.17.17c.21.03.36.21.36.42v1.71c0,.21-.15.39-.36.42l-.52.08s-.04,0-.06,0Z"/>
          <path id="Path_86" data-name="Path 86" class="cls-2" d="M9.05,16.54h-1.71c-.21,0-.39-.15-.42-.36l-.08-.51c-.03-.23.13-.44.36-.47.22-.03.43.12.47.35l.02.15h.98l.16-1.08c.03-.17.15-.31.32-.35.48-.11.93-.3,1.35-.56.15-.09.34-.08.47.02l.88.65.69-.69-.65-.88c-.1-.14-.11-.33-.02-.47.14-.22.26-.46.36-.7.09-.22.33-.32.55-.23.22.09.32.33.23.55-.08.2-.17.39-.28.58l.7.95c.12.17.11.4-.04.55l-1.21,1.21c-.15.15-.38.16-.55.04l-.95-.7c-.34.19-.7.34-1.07.44l-.17,1.17c-.03.21-.21.36-.42.36Z"/>
          <path id="Path_87" data-name="Path 87" class="cls-2" d="M4.48,15.35c-.11,0-.22-.04-.3-.12l-1.21-1.21c-.15-.15-.16-.38-.04-.55l.7-.95c-.16-.28-.29-.58-.39-.88-.07-.22.05-.46.28-.53.22-.07.45.05.52.26.11.33.26.65.45.95.09.15.08.34-.02.47l-.65.88.69.69.88-.65c.14-.1.33-.11.47-.02.19.12.4.23.61.32.21.09.31.34.22.55-.09.21-.34.31-.55.22-.16-.07-.32-.15-.48-.23l-.95.7c-.07.05-.16.08-.25.08Z"/>
          <path id="Ellipse_12" data-name="Ellipse 12" class="cls-2" d="M8.2,7.09c1.61,0,2.92,1.31,2.92,2.92s-1.31,2.92-2.92,2.92-2.92-1.31-2.92-2.92c0-1.61,1.31-2.92,2.92-2.92ZM8.2,12.09c1.15,0,2.08-.93,2.08-2.08s-.93-2.08-2.08-2.08-2.08.93-2.08,2.08c0,1.15.93,2.08,2.08,2.08Z"/>
          <path id="Line_45" data-name="Line 45" class="cls-2" d="M21.61,10.09h-3.24c-.23,0-.42-.19-.42-.42s.19-.42.42-.42h3.24c.23,0,.42.19.42.42s-.19.42-.42.42Z"/>
          <path id="Line_46" data-name="Line 46" class="cls-2" d="M21.61,12.93h-3.24c-.23,0-.42-.19-.42-.42s.19-.42.42-.42h3.24c.23,0,.42.19.42.42s-.19.42-.42.42Z"/>
        </g>
      </g>
    </g>
  </g>
  <circle id="Ellipse_12-2" data-name="Ellipse 12-2" class="cls-4" cx="8.54" cy="9.97" r="8.04"/>
</svg>