<?xml version="1.0" encoding="UTF-8"?>
<svg id="Layer_1" data-name="Layer 1" xmlns="http://www.w3.org/2000/svg" xmlns:xlink="http://www.w3.org/1999/xlink" viewBox="0 0 32 32">
  <defs>
    <style>
      .cls-1 {
        fill: none;
      }

      .cls-2 {
        fill: #102b4d;
      }

      .cls-3 {
        fill: #008a60;
        isolation: isolate;
        opacity: .4;
      }

      .cls-4 {
        clip-path: url(#clippath);
      }
    </style>
    <clipPath id="clippath">
      <rect class="cls-1" x=".69" y=".5" width="31" height="31"/>
    </clipPath>
  </defs>
  <g id="Group_44" data-name="Group 44">
    <g class="cls-4">
      <g id="Group_44-2" data-name="Group 44-2">
        <path id="Path_78" data-name="Path 78" class="cls-2" d="M25.31,17.81c-.24,0-.44-.2-.44-.44,0-.02,0-.04,0-.06.06-.43.1-.87.1-1.31,0-4.86-3.94-8.79-8.79-8.79-1.42,0-2.82.35-4.08,1.01-.21.11-.48.03-.59-.18s-.03-.48.18-.59h0c4.73-2.48,10.57-.66,13.06,4.06.96,1.82,1.31,3.89,1,5.92-.03.22-.22.38-.44.38Z"/>
        <path id="Path_79" data-name="Path 79" class="cls-2" d="M16.19,25.66c-5.34,0-9.67-4.34-9.67-9.68,0-.57.05-1.15.15-1.71.04-.24.27-.4.51-.35.24.04.4.27.35.51-.87,4.78,2.3,9.35,7.08,10.22,1.96.36,3.99.03,5.75-.92.21-.12.48-.04.59.18.12.21.04.48-.18.59-1.41.76-2.99,1.16-4.6,1.16Z"/>
        <path id="Path_80" data-name="Path 80" class="cls-2" d="M27.69,21.56c-.24,0-.44-.2-.44-.44,0-.06.01-.12.04-.18.36-.81.63-1.65.8-2.52.04-.18.18-.32.37-.35l2.35-.35v-3.45l-2.35-.35c-.18-.03-.33-.17-.37-.35-.31-1.53-.91-2.99-1.77-4.29-.1-.15-.1-.36.01-.5l1.42-1.91-2.44-2.44-1.91,1.42c-.15.11-.35.12-.5.01-.77-.51-1.6-.93-2.47-1.26-.23-.08-.34-.34-.26-.56.08-.23.34-.34.56-.26h0c.83.31,1.63.71,2.39,1.18l1.97-1.46c.17-.13.42-.11.57.04l2.98,2.98c.15.15.17.4.04.57l-1.46,1.97c.78,1.24,1.35,2.6,1.67,4.03l2.42.36c.22.03.37.22.37.43v4.21c0,.22-.16.4-.37.43l-2.42.36c-.19.82-.45,1.63-.8,2.4-.07.16-.23.26-.41.25Z"/>
        <path id="Path_81" data-name="Path 81" class="cls-2" d="M18.29,31.5h-4.21c-.22,0-.4-.16-.43-.37l-.36-2.42c-1.43-.32-2.79-.89-4.03-1.67l-1.97,1.46c-.17.13-.42.11-.57-.04l-2.98-2.98c-.15-.15-.17-.4-.04-.57l1.46-1.97c-.49-.77-.89-1.59-1.2-2.45-.08-.23.03-.48.26-.56.23-.08.48.03.56.26h0c.33.89.76,1.73,1.28,2.52.1.15.1.36-.01.5l-1.42,1.91,2.44,2.44,1.91-1.42c.15-.11.35-.12.5-.01,1.3.86,2.76,1.47,4.29,1.77.18.04.32.18.35.37l.35,2.35h3.46l.35-2.35c.03-.18.17-.33.35-.37,1.53-.31,2.99-.91,4.29-1.77.15-.1.36-.1.5.01l1.91,1.42,2.44-2.44-1.42-1.91c-.15-.19-.11-.47.09-.62s.47-.11.62.09l1.64,2.21c.13.17.11.42-.04.57l-2.98,2.98c-.15.15-.4.17-.57.04l-1.97-1.46c-1.24.78-2.6,1.35-4.03,1.67l-.36,2.42c-.03.22-.21.38-.43.38Z"/>
        <path id="Path_82" data-name="Path 82" class="cls-2" d="M3.85,18.95s-.04,0-.07,0l-2.72-.4c-.22-.03-.37-.22-.37-.43v-4.21c0-.22.16-.4.37-.43l2.42-.36c.32-1.43.89-2.79,1.67-4.03l-1.46-1.97c-.13-.17-.11-.42.04-.57l2.98-2.98c.15-.15.4-.17.57-.04l1.97,1.46c1.24-.78,2.6-1.35,4.03-1.67l.36-2.42c.03-.22.22-.37.43-.37h4.21c.22,0,.4.16.43.37l.4,2.72c.04.24-.13.46-.37.5s-.46-.13-.5-.37l-.35-2.35h-3.45l-.35,2.35c-.03.18-.17.33-.35.37-1.53.31-2.99.91-4.29,1.77-.15.1-.36.1-.5-.01l-1.91-1.42-2.44,2.45,1.42,1.91c.11.15.12.35.01.5-.86,1.3-1.47,2.76-1.77,4.29-.04.18-.18.32-.37.35l-2.35.35v3.45l2.35.35c.24.03.41.25.38.49-.03.22-.22.38-.44.38h0Z"/>
        <path id="Path_83" data-name="Path 83" class="cls-2" d="M18.91,17.17c-.24,0-.44-.2-.44-.44s.2-.44.44-.44h1.32c.67,0,1.21-.56,1.21-1.23v-1.49c0-.13-.1-.23-.23-.23h-10.06c-.13,0-.23.1-.23.23v1.49c0,.21.06.42.16.61.22.38.62.61,1.05.62h1.32c.24,0,.44.2.44.44s-.2.44-.44.44h-1.32c-1.16,0-2.09-.95-2.09-2.1v-1.49c0-.61.5-1.11,1.11-1.11h10.06c.61,0,1.11.5,1.11,1.11v1.49c0,1.15-.93,2.09-2.08,2.1h-1.33Z"/>
        <path id="Path_84" data-name="Path 84" class="cls-2" d="M20.85,21.35h-9.32c-.7,0-1.26-.57-1.26-1.26v-2.42c0-.24.2-.44.44-.44s.44.2.44.44v2.42c0,.21.17.38.38.38h9.32c.21,0,.38-.17.39-.38v-2.42c0-.24.2-.44.44-.44s.44.2.44.44v2.42c0,.7-.57,1.26-1.26,1.26Z"/>
        <path id="Path_85" data-name="Path 85" class="cls-2" d="M18.53,12.09c-.24,0-.44-.2-.44-.44v-1.04c0-.19-.15-.34-.34-.34h-3.12c-.19,0-.34.15-.34.34h0v1.04c0,.24-.2.44-.44.44s-.44-.2-.44-.44v-1.04c0-.67.55-1.22,1.22-1.22h3.12c.67,0,1.22.55,1.22,1.22v1.04c0,.24-.2.44-.44.44Z"/>
        <path id="Path_86" data-name="Path 86" class="cls-2" d="M16.19,18.32c-.76,0-1.38-.62-1.38-1.38v-1.35c0-.24.2-.44.44-.44h1.89c.24,0,.44.2.44.44v1.35c0,.76-.62,1.38-1.39,1.38ZM15.68,16.02v.91c-.01.28.21.51.49.52.28.01.51-.21.52-.49,0-.01,0-.02,0-.04v-.91h-1.01Z"/>
      </g>
    </g>
  </g>
  <circle id="Ellipse_13" data-name="Ellipse 13" class="cls-3" cx="16.19" cy="16" r="10.19"/>
</svg>