<?xml version="1.0" encoding="UTF-8"?>
<svg id="Layer_1" data-name="Layer 1" xmlns="http://www.w3.org/2000/svg" xmlns:xlink="http://www.w3.org/1999/xlink" viewBox="0 0 32 32">
  <defs>
    <style>
      .cls-1 {
        fill: none;
      }

      .cls-2 {
        fill: #102b4d;
        stroke: #0e2b4c;
        stroke-width: .1px;
      }

      .cls-3 {
        fill: #008a60;
        isolation: isolate;
        opacity: .4;
      }

      .cls-4 {
        clip-path: url(#clippath);
      }
    </style>
    <clipPath id="clippath">
      <rect class="cls-1" x=".5" y=".44" width="31" height="31.14"/>
    </clipPath>
  </defs>
  <g id="Group_46" data-name="Group 46">
    <g class="cls-4">
      <g id="Group_45" data-name="Group 45">
        <path id="Path_78" data-name="Path 78" class="cls-2" d="M23.27,21.93c-1.02,0-2.01-.38-2.77-1.06-.39-.34-.73-.73-1.01-1.17-.29-.46-.51-.95-.67-1.47,0,0-.02-.09-.05-.18-.25-.08-.46-.25-.6-.47-.36-.6-.36-1.34,0-1.93.09-.14.21-.27.35-.36-.09-.49-.13-.99-.12-1.48,0-.47.08-.94.21-1.38.15-.48.43-.91.82-1.24.6-.41,1.26-.7,1.97-.87.54-.16,1.1-.25,1.66-.28h.2c.5,0,1,.06,1.49.18.72.13,1.41.38,2.05.74.63.49,1.05,1.2,1.17,1.99.14.75.15,1.53.04,2.28.19.09.36.24.47.42.36.6.36,1.34,0,1.93-.16.27-.42.45-.73.5l-.04.13c-.15.52-.38,1.02-.67,1.47-.28.44-.61.83-1.01,1.17-.77.68-1.76,1.05-2.78,1.06ZM23.27,10.66h-.18c-.51.02-1.02.11-1.51.25-.62.14-1.22.4-1.75.75-.3.25-.51.58-.62.96-.12.39-.18.8-.18,1.2,0,.53.04,1.07.15,1.59l.06.29-.28.07c-.11.04-.2.11-.26.22-.22.39-.22.87,0,1.27.07.13.19.21.33.23h.24l.06.24c.02.08.09.35.09.35.14.46.34.9.6,1.31.24.39.54.73.89,1.03,1.35,1.21,3.4,1.21,4.75,0,.35-.3.64-.64.89-1.03.26-.41.46-.85.6-1.31h0s.07-.27.09-.35l.07-.29.29.06c.16,0,.31-.08.38-.22.22-.39.22-.87,0-1.27-.06-.12-.18-.2-.32-.23l-.34-.02.06-.34c.15-.77.15-1.56.01-2.33-.09-.63-.41-1.21-.92-1.61-.57-.32-1.19-.54-1.83-.65-.45-.11-.9-.16-1.36-.16h0Z"/>
        <path id="Path_79" data-name="Path 79" class="cls-2" d="M26.24,13.88c-.03-.17-.09-.34-.16-.51-.14.15-.31.26-.51.3-.24.04-.48-.02-.68-.17-.1-.07-.22-.12-.35-.13-.11,0-.23.03-.31.11-.18.14-.4.23-.63.23-.34,0-.67-.15-.91-.4-.2-.17-.33-.27-.52-.26-.07,0-.15.03-.21.07-.17.1-.36.15-.55.16-.23,0-.45-.03-.67-.1-.07-.03-.14-.04-.21-.05-.04,0-.11.14-.11.5h-.61c-.01-.81.32-1.05.6-1.1.17-.03.35,0,.52.06.14.05.29.08.45.08.1,0,.2-.03.29-.09.14-.09.31-.14.47-.14.36,0,.7.14.95.4.2.17.32.26.5.26.11,0,.21-.05.29-.12.2-.16.45-.24.7-.22.22.02.44.1.62.22.13.08.18.1.24.09.08-.02.15-.07.2-.14.12-.15.31-.24.51-.23.42.06.59.58.69,1.04l-.6.13Z"/>
        <path id="Path_80" data-name="Path 80" class="cls-2" d="M23.72,24.9h-.79c-.19,0-.37-.11-.46-.29-.14-.35-.26-.72-.37-1.09-.09-.26-.06-.55.09-.78.1-.16.27-.25.45-.25h1.35c.18,0,.35.1.45.25.15.24.18.54.08.8-.1.36-.22.71-.36,1.06-.09.17-.26.28-.45.29ZM23,24.29h.65c.08-.21.23-.66.3-.93.04-.09.03-.19-.01-.27l-1.29.02s0,.12.04.22c.09.29.23.75.31.96h0Z"/>
        <path id="Path_81" data-name="Path 81" class="cls-2" d="M23.3,30.72l-1.12-1.17.43-4.97.61.05-.4,4.7.49.52.52-.52-.4-4.7.61-.05.43,4.98-1.17,1.17Z"/>
        <path id="Line_41" data-name="Line 41" class="cls-2" d="M19,30.67h-.61v-2.23h.61v2.23Z"/>
        <path id="Line_42" data-name="Line 42" class="cls-2" d="M28.27,30.67h-.61v-2.23h.61v2.23Z"/>
        <path id="Path_82" data-name="Path 82" class="cls-2" d="M31.5,30.67h-.61c0-7.07-1.76-7.21-4.42-7.42l-.02-.31.07-.3c3.09.24,4.99.76,4.99,8.03Z"/>
        <path id="Path_83" data-name="Path 83" class="cls-2" d="M15.77,30.67h-.61c0-7.27,1.9-7.79,4.99-8.03l.1.61c-2.71.22-4.47.35-4.47,7.43Z"/>
        <path id="Path_84" data-name="Path 84" class="cls-2" d="M25.6,21.19l1.2,1.73-1.44,2.86-1.44-3.02,1.68-1.57ZM26.08,22.97l-.59-.85-.84.78.71,1.48.71-1.42Z"/>
        <path id="Path_85" data-name="Path 85" class="cls-2" d="M21.05,21.19l1.68,1.57-1.44,3.02-1.44-2.86,1.2-1.73ZM21.99,22.9l-.84-.78-.59.85.71,1.42.71-1.48Z"/>
        <path id="Path_86" data-name="Path 86" class="cls-2" d="M13.55,31.27h-.61v-9.74h-2.59v9.74h-.61v-10.35h3.82v10.35Z"/>
        <path id="Path_87" data-name="Path 87" class="cls-2" d="M9.28,31.27h-.61v-7.6h-2.59v7.6h-.61v-8.21h3.82v8.21Z"/>
        <path id="Path_88" data-name="Path 88" class="cls-2" d="M5.01,31.27h-.61v-5.46H1.8v5.46h-.61v-6.08h3.82v6.08Z"/>
        <path id="Path_89" data-name="Path 89" class="cls-2" d="M11.25,6.21c.13,0,.26,0,.39.02,1.88.21,3.23,1.91,3.02,3.79-.1.85-.51,1.64-1.16,2.2-.37.32-.58.79-.58,1.27v.42c.01.89-.67,1.64-1.56,1.72h-.11c-.92,0-1.67-.75-1.67-1.67v-.46c0-.5-.23-.98-.61-1.31-1.41-1.26-1.53-3.43-.27-4.84.65-.73,1.58-1.14,2.56-1.14h0ZM11.25,15.02c.59-.02,1.06-.51,1.06-1.11v-.42c0-.67.29-1.3.79-1.74,1.17-1.02,1.3-2.8.28-3.97-1.02-1.17-2.8-1.3-3.97-.28s-1.3,2.8-.28,3.97c.08.09.16.17.25.25.51.45.81,1.09.81,1.76v.46c0,.59.47,1.06,1.06,1.06,0,0,0,0,0,0Z"/>
        <path id="Line_43" data-name="Line 43" class="cls-2" d="M12.62,13.8h-2.73v-.61h2.73v.61Z"/>
        <path id="Path_90" data-name="Path 90" class="cls-2" d="M11.25,7.93c.86,0,1.56.7,1.56,1.56s-.7,1.56-1.56,1.56-1.56-.7-1.56-1.56c0-.86.7-1.56,1.56-1.56ZM11.25,10.44c.52,0,.95-.42.95-.95,0-.52-.42-.95-.95-.95-.52,0-.95.42-.95.95h0c0,.52.42.95.95.95Z"/>
        <path id="Line_44" data-name="Line 44" class="cls-2" d="M11.56,13.5h-.61v-2.75h.61v2.75Z"/>
        <path id="Line_45" data-name="Line 45" class="cls-2" d="M14.24,31.58H.5v-.61h13.74v.61Z"/>
        <path id="Path_91" data-name="Path 91" class="cls-2" d="M13.88,21.4l-.74-1.78c-1.24.27-2.53.27-3.77,0l-.74,1.78-2.93-1.22.74-1.78c-1.07-.69-1.98-1.6-2.67-2.66l-1.79.74-1.21-2.93,1.78-.74c-.27-1.24-.27-2.53,0-3.77l-1.78-.74,1.21-2.93,1.78.74c.69-1.07,1.6-1.98,2.66-2.66l-.74-1.78,2.93-1.21.74,1.79c1.24-.27,2.53-.27,3.77,0l.74-1.79,2.93,1.21-.74,1.78c1.07.69,1.98,1.6,2.66,2.66l1.78-.74,1.21,2.93-1.79.74c.08.37.14.75.17,1.13l-.61.05c-.04-.44-.11-.87-.21-1.29l-.06-.26,1.7-.7-.74-1.8-1.7.7-.13-.23c-.7-1.16-1.66-2.12-2.82-2.82l-.23-.13.7-1.7-1.8-.75-.7,1.7-.26-.06c-1.31-.32-2.68-.32-3.99,0l-.26.06-.7-1.7-1.8.75.7,1.7-.23.13c-1.16.7-2.12,1.66-2.82,2.82l-.13.23-1.7-.7-.75,1.8,1.7.7-.06.26c-.32,1.31-.32,2.68,0,3.99l.06.26-1.7.7.75,1.8,1.7-.7.13.23c.7,1.16,1.66,2.12,2.82,2.82l.23.13-.7,1.7,1.8.75.7-1.7.26.06c1.31.32,2.68.32,3.99,0l.26-.06.7,1.7,1.8-.75-.7-1.7.23-.13c.58-.35,1.12-.77,1.6-1.26l.44.43c-.45.46-.96.86-1.5,1.21l.74,1.78-2.93,1.22Z"/>
        <path id="Path_92" data-name="Path 92" class="cls-2" d="M11.25,4.33c3.64,0,6.59,2.95,6.59,6.59,0,3.64-2.95,6.59-6.59,6.59-3.64,0-6.59-2.95-6.59-6.59,0-.87.17-1.72.5-2.52,1.01-2.47,3.42-4.08,6.09-4.07ZM11.25,16.9c3.3,0,5.99-2.66,6-5.97,0-3.3-2.66-5.99-5.97-6-3.3,0-5.99,2.66-6,5.97,0,2.42,1.45,4.61,3.68,5.54.72.3,1.5.46,2.28.46h0Z"/>
      </g>
    </g>
  </g>
  <circle id="Ellipse_14" data-name="Ellipse 14" class="cls-3" cx="11.28" cy="10.69" r="7.41"/>
</svg>