<?xml version="1.0" encoding="UTF-8"?>
<svg id="Layer_1" data-name="Layer 1" xmlns="http://www.w3.org/2000/svg" xmlns:xlink="http://www.w3.org/1999/xlink" viewBox="0 0 32 32">
  <defs>
    <style>
      .cls-1 {
        fill: none;
      }

      .cls-2 {
        fill: #102b4d;
      }

      .cls-3 {
        fill: #008a60;
        isolation: isolate;
        opacity: .4;
      }

      .cls-4 {
        clip-path: url(#clippath);
      }
    </style>
    <clipPath id="clippath">
      <rect class="cls-1" x=".5" y="5.1" width="31" height="21.99"/>
    </clipPath>
  </defs>
  <g id="Group_48" data-name="Group 48">
    <g class="cls-4">
      <g id="Group_47" data-name="Group 47">
        <path id="Path_78" data-name="Path 78" class="cls-2" d="M24.97,15.06c-.21,0-.38-.17-.38-.38v-7.83c.11-.43-.15-.87-.58-.97-.43-.11-.87.15-.97.58-.03.13-.03.27,0,.39v1.45c0,.21-.15.39-.36.39s-.39-.15-.39-.36c0-.01,0-.02,0-.03v-1.45c-.13-.85.46-1.64,1.3-1.76.85-.13,1.64.46,1.76,1.3.02.15.02.31,0,.46v7.83c0,.21-.17.38-.38.38Z"/>
        <path id="Path_79" data-name="Path 79" class="cls-2" d="M22.66,15.06h0c-.21,0-.38-.17-.38-.38v-6.59c.05-.49-.29-.93-.78-1h0c-.49.07-.83.51-.78,1v2.88c0,.21-.19.37-.39.36-.2,0-.35-.17-.36-.36v-2.88c-.05-.91.63-1.69,1.54-1.75h0c.91.07,1.59.85,1.54,1.76v6.59c0,.21-.17.38-.38.38Z"/>
        <path id="Path_80" data-name="Path 80" class="cls-2" d="M20.34,13.31c-.21,0-.38-.17-.38-.38v-2.27c.1-.37-.13-.75-.5-.85s-.75.13-.85.5c-.03.12-.03.24,0,.35v1.21c0,.21-.17.38-.38.38h0c-.21,0-.38-.17-.38-.38v-1.21c-.05-.84.59-1.57,1.43-1.63h0c.84.06,1.48.79,1.43,1.63v2.27c0,.21-.17.38-.38.38Z"/>
        <path id="Path_81" data-name="Path 81" class="cls-2" d="M20.06,27.09c-.21,0-.38-.17-.38-.38,0-.34-.02-.68-.05-1.03-.01-.21.14-.39.35-.4.2-.01.37.13.4.33.04.37.05.73.05,1.1,0,.21-.17.38-.38.38Z"/>
        <path id="Path_82" data-name="Path 82" class="cls-2" d="M25.73,27.09c-.21,0-.38-.17-.38-.38.05-1.59.65-3.12,1.7-4.32.24-.33.46-.64.66-.96.87-1.25,1.51-2.64,1.89-4.11.1-.36.2-.75.36-1.22.06-.19.13-.38.2-.57.4-1.17.86-2.49.35-2.73-.09-.03-.19-.03-.28.02-.44.17-1.17.93-1.77,2.47-.51,1.3-.69,1.75-1.01,2.63-.16.43-.51.77-.95.91-.98.26-1.73,1.05-1.94,2.04-.03.21-.21.35-.42.33-.21-.03-.35-.21-.33-.42,0,0,0-.02,0-.03.25-1.27,1.2-2.29,2.44-2.63.22-.07.4-.24.48-.46.33-.89.51-1.34,1.02-2.64.59-1.5,1.41-2.58,2.2-2.89.28-.12.6-.12.88,0,1.13.53.57,2.12.04,3.66-.06.19-.13.38-.19.56-.15.45-.25.83-.35,1.18-.4,1.54-1.07,3-1.97,4.31-.21.35-.46.68-.69,1.01-.95,1.07-1.5,2.44-1.56,3.88,0,.21-.17.37-.38.37Z"/>
        <path id="Path_83" data-name="Path 83" class="cls-2" d="M27.29,17.64c-.21,0-.38-.17-.38-.38v-8.55c.05-.49-.29-.93-.77-1-.21,0-.41.1-.54.27-.17.2-.26.46-.26.73,0,.21-.15.39-.36.39-.21,0-.39-.15-.39-.36,0-.01,0-.02,0-.03,0-.45.15-.88.44-1.22.27-.33.68-.53,1.11-.53.9.07,1.58.85,1.53,1.76v8.54c0,.21-.17.38-.38.38h0Z"/>
        <path id="Path_84" data-name="Path 84" class="cls-2" d="M7.03,15.06c-.21,0-.38-.17-.38-.38h0v-7.83c-.13-.85.46-1.64,1.3-1.76.85-.13,1.64.46,1.76,1.3.02.15.02.31,0,.46v1.45c0,.21-.17.38-.38.38h0c-.21,0-.38-.17-.38-.38h0v-1.45c.11-.43-.15-.87-.58-.97-.43-.11-.87.15-.97.58-.03.13-.03.27,0,.39v7.83c0,.21-.17.38-.38.38Z"/>
        <path id="Path_85" data-name="Path 85" class="cls-2" d="M9.34,15.06c-.21,0-.38-.17-.38-.38h0v-6.59c0-.44.15-.87.43-1.22.27-.34.68-.53,1.11-.54.91.06,1.59.85,1.54,1.75v2.88c0,.21-.17.38-.38.38h0c-.21,0-.38-.17-.38-.38h0v-2.88c.05-.49-.3-.93-.78-1-.21,0-.4.11-.53.27-.17.21-.26.47-.25.73v6.59c0,.21-.17.38-.38.38Z"/>
        <path id="Path_86" data-name="Path 86" class="cls-2" d="M11.66,13.31c-.21,0-.38-.17-.38-.38h0v-2.27c-.11-.79.45-1.52,1.24-1.62s1.52.45,1.62,1.24c.02.11.02.23,0,.35h0v.03h0s0,.05-.01.07c.01.25.01.62.01,1.18,0,.21-.15.39-.36.39-.21,0-.39-.15-.39-.36,0-.01,0-.02,0-.03v-1.25c.1-.37-.13-.75-.5-.85s-.75.13-.85.5c-.03.12-.03.24,0,.35v2.27c0,.21-.17.38-.38.38,0,0,0,0,0,0Z"/>
        <path id="Path_87" data-name="Path 87" class="cls-2" d="M11.94,27.09c-.21,0-.38-.17-.38-.38,0-.38.02-.75.05-1.13.01-.21.19-.37.4-.35s.37.19.35.4c0,0,0,.02,0,.02-.03.35-.05.7-.05,1.05,0,.21-.17.38-.38.38Z"/>
        <path id="Path_88" data-name="Path 88" class="cls-2" d="M6.27,27.09c-.21,0-.38-.17-.38-.38h0c-.06-1.43-.61-2.8-1.56-3.88-.24-.32-.48-.66-.69-1.01-.91-1.31-1.57-2.77-1.97-4.31-.1-.35-.2-.73-.35-1.18-.06-.19-.13-.38-.19-.56-.53-1.54-1.09-3.13.04-3.66.28-.12.6-.12.88,0,.79.31,1.61,1.39,2.2,2.89.51,1.3.69,1.76,1.02,2.64.08.22.26.39.48.46,1.25.34,2.19,1.36,2.44,2.63.04.2-.09.4-.29.45-.2.04-.4-.09-.45-.29,0,0,0-.02,0-.03-.21-.99-.96-1.77-1.94-2.04-.44-.14-.79-.48-.95-.91-.33-.88-.5-1.34-1.01-2.63-.6-1.54-1.33-2.29-1.77-2.47-.09-.05-.19-.05-.28-.02-.51.24-.05,1.56.35,2.73.07.19.13.38.2.57.16.47.26.86.36,1.22.38,1.47,1.02,2.86,1.89,4.11.2.32.42.63.66.96,1.05,1.2,1.65,2.72,1.7,4.32,0,.21-.17.38-.38.38h0Z"/>
        <path id="Path_89" data-name="Path 89" class="cls-2" d="M4.71,17.64h0c-.21,0-.38-.17-.38-.38h0v-8.55c-.11-.85.5-1.62,1.35-1.73.85-.11,1.62.5,1.73,1.35.02.13.02.26,0,.38,0,.21-.19.37-.39.36-.2,0-.35-.17-.36-.36.04-.49-.31-.93-.79-1-.48.07-.82.51-.77,1v8.55c0,.21-.17.38-.38.38Z"/>
        <path id="Line_41" data-name="Line 41" class="cls-2" d="M16,15.47c-.21,0-.38-.17-.38-.38h0v-.32c0-.21.17-.38.38-.38h0c.21,0,.38.17.38.38h0v.32c0,.21-.17.38-.38.38h0Z"/>
        <path id="Line_42" data-name="Line 42" class="cls-2" d="M16,23.81c-.21,0-.38-.17-.38-.38h0v-.32c0-.21.17-.38.38-.38h0c.21,0,.38.17.38.38h0v.32c0,.21-.17.38-.38.38h0Z"/>
        <path id="Line_43" data-name="Line 43" class="cls-2" d="M11.99,19.48h-.32c-.21,0-.38-.17-.38-.38h0c0-.21.17-.38.38-.38h.32c.21,0,.38.17.38.38h0c0,.21-.17.38-.38.38h0Z"/>
        <path id="Line_44" data-name="Line 44" class="cls-2" d="M20.33,19.48h-.32c-.21,0-.38-.17-.38-.38h0c0-.21.17-.38.38-.38h.32c.21,0,.38.17.38.38h0c0,.21-.17.38-.38.38h0Z"/>
        <path id="Line_45" data-name="Line 45" class="cls-2" d="M13.99,16.01c-.14,0-.26-.07-.33-.19l-.16-.28c-.1-.18-.04-.41.14-.52,0,0,0,0,0,0,.18-.1.41-.04.52.14,0,0,0,0,0,0l.16.28c.1.18.04.41-.14.52,0,0,0,0,0,0-.06.03-.12.05-.19.05Z"/>
        <path id="Line_46" data-name="Line 46" class="cls-2" d="M18.16,23.23c-.14,0-.26-.07-.33-.19l-.16-.28c-.1-.18-.04-.41.14-.52,0,0,0,0,0,0,.18-.1.41-.04.52.14,0,0,0,0,0,0l.16.28c.1.18.04.41-.14.52,0,0,0,0,0,0-.06.03-.12.05-.19.05Z"/>
        <path id="Line_47" data-name="Line 47" class="cls-2" d="M12.25,21.64c-.14,0-.26-.07-.33-.19-.1-.18-.04-.41.14-.52,0,0,0,0,0,0l.28-.16c.18-.1.41-.04.52.14,0,0,0,0,0,0,.1.18.04.41-.14.52,0,0,0,0,0,0l-.28.16c-.06.03-.12.05-.19.05Z"/>
        <path id="Line_48" data-name="Line 48" class="cls-2" d="M19.47,17.47c-.14,0-.26-.07-.33-.19-.1-.18-.04-.41.14-.52,0,0,0,0,0,0l.28-.16c.18-.1.41-.04.52.14,0,0,0,0,0,0,.1.18.04.41-.14.52,0,0,0,0,0,0l-.28.16c-.06.03-.12.05-.19.05Z"/>
        <path id="Line_49" data-name="Line 49" class="cls-2" d="M18,16.01c-.07,0-.13-.02-.19-.05-.18-.1-.24-.33-.14-.52,0,0,0,0,0,0l.16-.28c.1-.18.33-.24.52-.14,0,0,0,0,0,0,.18.1.24.33.14.52,0,0,0,0,0,0l-.16.28c-.07.12-.19.19-.32.19Z"/>
        <path id="Line_50" data-name="Line 50" class="cls-2" d="M13.83,23.23c-.07,0-.13-.02-.19-.05-.18-.1-.24-.33-.14-.52,0,0,0,0,0,0l.16-.28c.1-.18.33-.24.52-.14,0,0,0,0,0,0,.18.1.24.33.14.52,0,0,0,0,0,0l-.16.28c-.07.12-.19.19-.32.19Z"/>
        <path id="Line_51" data-name="Line 51" class="cls-2" d="M12.53,17.47c-.07,0-.13-.02-.19-.05l-.28-.16c-.18-.1-.24-.33-.14-.52,0,0,0,0,0,0,.1-.18.33-.24.52-.14,0,0,0,0,0,0l.28.16c.18.1.24.33.14.52,0,0,0,0,0,0-.07.12-.19.19-.32.19Z"/>
        <path id="Line_52" data-name="Line 52" class="cls-2" d="M19.75,21.64c-.07,0-.13-.02-.19-.05l-.28-.16c-.18-.1-.24-.33-.14-.52,0,0,0,0,0,0,.1-.18.33-.24.52-.14,0,0,0,0,0,0l.28.16c.18.1.24.33.14.52,0,0,0,0,0,0-.07.12-.19.19-.32.19Z"/>
        <path id="Path_90" data-name="Path 90" class="cls-2" d="M16,12.72c3.52,0,6.37,2.86,6.37,6.38,0,3.52-2.86,6.37-6.38,6.37-3.52,0-6.37-2.86-6.37-6.38,0-2.14,1.07-4.14,2.86-5.32,1.04-.69,2.27-1.06,3.52-1.06ZM16,24.72c3.1,0,5.62-2.52,5.62-5.62,0-3.1-2.52-5.62-5.62-5.62-3.1,0-5.62,2.52-5.62,5.62h0c0,3.1,2.52,5.62,5.62,5.62Z"/>
        <path id="Path_91" data-name="Path 91" class="cls-2" d="M16,19.64h0c-.1,0-.2-.04-.27-.11l-2.07-2.07c-.15-.14-.16-.38-.02-.53.14-.15.38-.16.53-.02,0,0,.01.01.02.02l1.81,1.81,1.2-1.2c.15-.14.39-.13.53.02.14.15.14.37,0,.52l-1.47,1.47c-.07.07-.17.11-.26.11Z"/>
      </g>
    </g>
  </g>
  <circle id="Ellipse_15" data-name="Ellipse 15" class="cls-3" cx="16" cy="19.1" r="7.75"/>
</svg>