<?xml version="1.0" encoding="UTF-8"?>
<svg id="Layer_1" data-name="Layer 1" xmlns="http://www.w3.org/2000/svg" xmlns:xlink="http://www.w3.org/1999/xlink" viewBox="0 0 32 32">
  <defs>
    <style>
      .cls-1 {
        fill: none;
      }

      .cls-2 {
        fill: #102b4d;
      }

      .cls-3 {
        fill: #008a60;
        isolation: isolate;
        opacity: .4;
      }

      .cls-4 {
        clip-path: url(#clippath);
      }
    </style>
    <clipPath id="clippath">
      <rect class="cls-1" x=".5" y="4.38" width="29.61" height="23.94"/>
    </clipPath>
  </defs>
  <g id="Group_53" data-name="Group 53">
    <path id="Line_41" data-name="Line 41" class="cls-2" d="M12.09,22.78s-.09,0-.13-.02c-.22-.07-.34-.31-.27-.52h0s1.65-5.02,1.65-5.02c.07-.22.31-.34.52-.27,0,0,0,0,0,0,.22.07.34.31.27.52,0,0,0,0,0,0l-1.65,5.02c-.06.17-.21.29-.39.29Z"/>
    <path id="Line_42" data-name="Line 42" class="cls-2" d="M19.1,24.58c-.18,0-.34-.12-.39-.29l-1.75-5.35c-.07-.22.05-.45.26-.52,0,0,0,0,0,0,.22-.07.45.05.52.26,0,0,0,0,0,0l1.75,5.35c.07.22-.05.45-.27.52-.04.01-.08.02-.13.02Z"/>
    <g id="Group_52" data-name="Group 52">
      <g class="cls-4">
        <g id="Group_51" data-name="Group 51">
          <path id="Path_78" data-name="Path 78" class="cls-2" d="M15.3,12.5c1.61,0,2.91,1.3,2.91,2.91,0,1.61-1.3,2.91-2.91,2.91-1.61,0-2.91-1.3-2.91-2.91h0c0-1.61,1.3-2.91,2.91-2.91ZM15.3,17.48c1.15,0,2.08-.93,2.08-2.08s-.93-2.08-2.08-2.08-2.08.93-2.08,2.08h0c0,1.15.93,2.08,2.08,2.08Z"/>
          <path id="Path_79" data-name="Path 79" class="cls-2" d="M26.93,28.32H3.68c-.23,0-.41-.19-.41-.41h0c0-2.29,1.86-4.15,4.16-4.16h15.77c2.29,0,4.15,1.86,4.16,4.16,0,.23-.19.41-.41.41h0ZM4.12,27.49h22.37c-.21-1.66-1.62-2.91-3.3-2.91H7.42c-1.68,0-3.09,1.25-3.3,2.91h0Z"/>
          <path id="Line_43" data-name="Line 43" class="cls-2" d="M29.69,15.73h-11.9c-.23,0-.41-.19-.41-.41h0c0-.23.19-.41.41-.41h11.9c.23,0,.41.19.41.41s-.19.41-.41.41Z"/>
          <path id="Line_44" data-name="Line 44" class="cls-2" d="M12.81,15.73H.91c-.23,0-.41-.19-.41-.41h0c0-.23.19-.41.41-.41h11.9c.23,0,.41.19.41.41s-.19.41-.41.41Z"/>
          <path id="Path_80" data-name="Path 80" class="cls-2" d="M8.17,10.61h-1.2c-.23,0-.42-.19-.42-.42s.19-.42.42-.42h1.2c.46,0,.83-.37.83-.83v-1.11s-.04-.09-.09-.09H1.42s-.09.04-.09.09v1.11c0,.14.04.28.11.41.15.26.42.42.72.42h1.2c.23,0,.42.19.42.42s-.19.42-.42.42h-1.2c-.91,0-1.66-.74-1.66-1.66v-1.11c0-.51.41-.91.92-.92h7.5c.51,0,.92.41.92.92v1.11c0,.92-.74,1.66-1.66,1.66h0Z"/>
          <path id="Path_81" data-name="Path 81" class="cls-2" d="M8.64,13.73H1.69c-.57,0-1.03-.46-1.03-1.03h0v-1.52c0-.23.19-.42.42-.42s.42.19.42.42v1.52c0,.11.09.2.2.2h6.95c.11,0,.2-.09.2-.2v-1.52c0-.23.19-.42.42-.42s.42.19.42.42v1.52c0,.57-.46,1.03-1.03,1.03h0Z"/>
          <path id="Path_82" data-name="Path 82" class="cls-2" d="M7.49,6.57c-.23,0-.41-.19-.41-.41v-.77c0-.09-.08-.17-.17-.17h-3.48c-.09,0-.17.08-.17.17v.77c0,.23-.19.42-.42.42s-.42-.19-.42-.42v-.77c0-.55.45-1,1-1h3.48c.55,0,1,.45,1,1v.77c0,.23-.19.41-.41.41h0Z"/>
          <path id="Line_45" data-name="Line 45" class="cls-2" d="M5.16,11.11c-.23,0-.41-.19-.41-.41h0v-1.01c0-.23.19-.41.41-.41h0c.23,0,.41.19.41.41h0v1.01c0,.23-.19.41-.41.41Z"/>
          <path id="Path_83" data-name="Path 83" class="cls-2" d="M27.84,13.71h-5.73c-.23,0-.41-.19-.41-.41h0v-3.66h-.82c-.32,0-.58-.26-.58-.58,0-.16.06-.31.17-.41l4.22-4.1c.22-.22.58-.22.81,0l4.22,4.1c.23.22.23.59.01.82-.11.11-.26.17-.41.17h-1.05v3.66c0,.23-.19.41-.41.41,0,0,0,0,0,0ZM22.52,12.88h4.9v-3.66c0-.23.19-.41.41-.41h.85l-3.6-3.5-3.6,3.5h.61c.23,0,.41.19.41.41h0s0,3.66,0,3.66Z"/>
          <path id="Line_46" data-name="Line 46" class="cls-2" d="M25.09,13.72c-.23,0-.41-.18-.41-.41v-2.41c0-.23.19-.41.41-.41h0c.23,0,.41.19.41.41h0v2.41c0,.23-.19.41-.41.41Z"/>
        </g>
      </g>
    </g>
  </g>
  <circle id="Ellipse_17" data-name="Ellipse 17" class="cls-3" cx="25.22" cy="9.97" r="6.28"/>
</svg>