<svg xmlns="http://www.w3.org/2000/svg" xmlns:xlink="http://www.w3.org/1999/xlink" width="281.271" height="57.318" viewBox="0 0 281.271 57.318">
  <defs>
    <clipPath id="clip-path">
      <rect id="Rectangle_5" data-name="Rectangle 5" width="281.271" height="57.318" fill="none"/>
    </clipPath>
  </defs>
  <g id="Group_30" data-name="Group 30" transform="translate(0 -0.002)">
    <g id="Group_1" data-name="Group 1" transform="translate(0 0.002)" clip-path="url(#clip-path)">
      <path id="Path_2" data-name="Path 2" d="M281.27,43.727c-31.41-3.163-63.919-4.8-96.369-5.755-44.191-1.116-88.86-.679-132.675,1.738C34.62,40.674,17.141,41.92,0,43.727c10.795-1.815,22.352-3.15,33.807-4.318,49.2-4.83,101.1-5.853,151.745-4.043,32.627,1.319,65.5,3.641,95.719,8.361" transform="translate(0 1.44)" fill="#fff"/>
      <path id="Path_3" data-name="Path 3" d="M136.836,46.261a2.147,2.147,0,1,0,2.146,2.146,2.146,2.146,0,0,0-2.146-2.146m0,3.943a1.8,1.8,0,1,1,1.8-1.8,1.8,1.8,0,0,1-1.8,1.8" transform="translate(5.622 1.929)" fill="#fff"/>
      <path id="Path_4" data-name="Path 4" d="M137.674,48.955a.577.577,0,0,0-.285-.539.731.731,0,0,0-.433-1.324h-.993v2.449h.4v-.973l.508-.006a.357.357,0,0,1,.393.323,4.014,4.014,0,0,0,.041.653h.4a3.291,3.291,0,0,1-.032-.583m-.719-.765h-.595v-.723h.595a.361.361,0,0,1,0,.723" transform="translate(5.676 1.964)" fill="#fff"/>
      <path id="Path_5" data-name="Path 5" d="M62.925,55.226h3.027a2.6,2.6,0,0,1-1.171-1.384l-3.813-7.847L57.055,53.9a2.54,2.54,0,0,1-1.133,1.324h2.952a.888.888,0,0,1-.308-.956c.067-.177.457-1.015.457-1.015h3.721s.23.54.468,1.124a.733.733,0,0,1-.288.847M59.588,52l.474-1.062c.318-.67.676-1.48.818-1.8.126.3,1.292,2.866,1.292,2.866Z" transform="translate(2.334 1.918)" fill="#fff"/>
      <path id="Path_6" data-name="Path 6" d="M74.885,52.854a3.469,3.469,0,0,1-2.828,1.085,3.2,3.2,0,1,1,0-6.39,3.076,3.076,0,0,1,2.5,1.219l.11.133.11-2.276s-.669-.146-.941-.222a6.9,6.9,0,0,0-2.09-.309,4.653,4.653,0,0,0,.273,9.3,8.33,8.33,0,0,0,2.648-.421l.364-2.286Z" transform="translate(2.809 1.922)" fill="#fff"/>
      <path id="Path_7" data-name="Path 7" d="M88.962,55.215h3.2a1.583,1.583,0,0,1-.82-1.541V47.8a1.514,1.514,0,0,1,.685-1.541H89.087a1.511,1.511,0,0,1,.7,1.541v5.872a1.587,1.587,0,0,1-.822,1.541" transform="translate(3.714 1.929)" fill="#fff"/>
      <path id="Path_8" data-name="Path 8" d="M98.834,49.836l-.05-.036c-.567-.426-1.075-.851-1.075-1.383a.91.91,0,0,1,.936-.912,2.17,2.17,0,0,1,1.7,1.042l.142-1.976a4.134,4.134,0,0,0-2.016-.476A2.347,2.347,0,0,0,96.138,48.5c0,1.167.939,1.924,1.767,2.592l.227.185c.63.507,1.152.975,1.152,1.571a1.087,1.087,0,0,1-1.134,1.133,2.472,2.472,0,0,1-1.928-.915l-.161-.21.377,2.377.078-.032a.441.441,0,0,1,.16-.032,2.022,2.022,0,0,1,.438.072,5.012,5.012,0,0,0,1.234.151,2.468,2.468,0,0,0,2.507-2.594c0-1.449-1.168-2.325-2.021-2.965" transform="translate(4.01 1.922)" fill="#fff"/>
      <path id="Path_9" data-name="Path 9" d="M110.713,55.215H113.1a1.523,1.523,0,0,1-.829-1.244V47.5a1.342,1.342,0,0,1,.746-1.244h-3.028a1.424,1.424,0,0,1,.724,1.244v5.233a2.925,2.925,0,0,1-2.249,1.1c-1.114,0-1.654-.829-1.654-2.535V47.456a1.348,1.348,0,0,1,.663-1.195h-3.038a1.461,1.461,0,0,1,.816,1.578v3.89c0,2.2,1.194,3.572,3.115,3.572a3.684,3.684,0,0,0,2.345-.963Z" transform="translate(4.359 1.929)" fill="#fff"/>
      <path id="Path_10" data-name="Path 10" d="M86.042,55.27a47.2,47.2,0,0,1-3.026-4.212A2.509,2.509,0,0,0,84.2,48.867a2.565,2.565,0,0,0-2.742-2.606H78.513a1.321,1.321,0,0,1,.7,1.195v6.565a1.637,1.637,0,0,1-.821,1.194h3.139a1.588,1.588,0,0,1-.758-1.194v-2.56h.789l1.38,2.106a3.734,3.734,0,0,0,3.051,1.814h.148ZM81.4,50.187H80.77V47.634h.589a1.277,1.277,0,1,1,.038,2.553" transform="translate(3.272 1.929)" fill="#fff"/>
      <path id="Path_11" data-name="Path 11" d="M124.386,55.27a47.2,47.2,0,0,1-3.026-4.212,2.509,2.509,0,0,0,1.186-2.191,2.565,2.565,0,0,0-2.742-2.606h-2.946a1.321,1.321,0,0,1,.7,1.195v6.565a1.637,1.637,0,0,1-.821,1.194h3.14a1.586,1.586,0,0,1-.759-1.194v-2.56h.789l1.38,2.106a3.736,3.736,0,0,0,3.051,1.814h.148Zm-4.645-5.083h-.626V47.634h.589a1.277,1.277,0,1,1,.038,2.553" transform="translate(4.873 1.929)" fill="#fff"/>
      <path id="Path_12" data-name="Path 12" d="M132.278,53.227a2.008,2.008,0,0,1-1.54.565h-1.667V51.276h1.777a1.093,1.093,0,0,1,1.022.513l-.014-2.352c-.185.432-.645.541-1.144.541h-1.642V47.634h1.505a1.265,1.265,0,0,1,1.245.605s-.031-.308-.051-.525c-.072-.8-.111-1.453-.624-1.453h-4.333a1.362,1.362,0,0,1,.7,1.194v6.256a1.559,1.559,0,0,1-.82,1.5h4.542c.6,0,.737-.764.935-1.564.048-.194.108-.424.108-.424" transform="translate(5.289 1.929)" fill="#fff"/>
      <path id="Path_13" data-name="Path 13" d="M150.656,51.805v3.584h-1.207V46.236h3.376A3.391,3.391,0,0,1,155.18,47a2.6,2.6,0,0,1,.852,2.03,2.568,2.568,0,0,1-.833,2.053,3.546,3.546,0,0,1-2.386.719Zm0-.987h2.169a2.168,2.168,0,0,0,1.483-.456,1.67,1.67,0,0,0,.516-1.32,1.723,1.723,0,0,0-.516-1.309,2.033,2.033,0,0,0-1.415-.51h-2.238Z" transform="translate(6.239 1.928)" fill="#fff"/>
      <path id="Path_14" data-name="Path 14" d="M163.733,52.994H159.9l-.861,2.4h-1.245l3.5-9.154h1.055l3.5,9.154h-1.239Zm-3.47-.987h3.112l-1.559-4.281Z" transform="translate(6.587 1.928)" fill="#fff"/>
      <path id="Path_15" data-name="Path 15" d="M171.917,51.686h-2.15v3.7h-1.214V46.235h3.03a3.589,3.589,0,0,1,2.379.7,2.536,2.536,0,0,1,.833,2.05,2.461,2.461,0,0,1-.463,1.49,2.76,2.76,0,0,1-1.286.949l2.15,3.885v.076H173.9Zm-2.15-.988h1.854a2.092,2.092,0,0,0,1.43-.466,1.577,1.577,0,0,0,.531-1.247,1.66,1.66,0,0,0-.506-1.3,2.143,2.143,0,0,0-1.462-.459h-1.848Z" transform="translate(7.036 1.928)" fill="#fff"/>
      <path id="Path_16" data-name="Path 16" d="M184.192,47.222H181.25v8.166h-1.2V47.222h-2.936v-.987h7.079Z" transform="translate(7.393 1.928)" fill="#fff"/>
      <path id="Path_17" data-name="Path 17" d="M193.73,55.389h-1.214l-4.608-7.054v7.054h-1.214V46.235h1.214l4.62,7.086V46.235h1.2Z" transform="translate(7.793 1.928)" fill="#fff"/>
      <path id="Path_18" data-name="Path 18" d="M201.755,51.158h-3.967V54.4H202.4v.987H196.58V46.236h5.753v.987h-4.545v2.949h3.967Z" transform="translate(8.206 1.928)" fill="#fff"/>
      <path id="Path_19" data-name="Path 19" d="M208.631,51.686h-2.15v3.7h-1.214V46.235h3.03a3.589,3.589,0,0,1,2.379.7,2.536,2.536,0,0,1,.833,2.05,2.461,2.461,0,0,1-.463,1.49,2.755,2.755,0,0,1-1.286.949l2.15,3.885v.076h-1.295Zm-2.15-.988h1.854a2.092,2.092,0,0,0,1.43-.466,1.577,1.577,0,0,0,.531-1.247,1.66,1.66,0,0,0-.506-1.3,2.143,2.143,0,0,0-1.462-.459h-1.848Z" transform="translate(8.569 1.928)" fill="#fff"/>
      <path id="Path_20" data-name="Path 20" d="M17.926,7.36l10.827,18.3H22.288l-7.6-12.835Z" transform="translate(0.613 0.306)" fill="#fff"/>
      <path id="Path_21" data-name="Path 21" d="M11.028,19.021l3.192-5.4,3.2,5.4Z" transform="translate(0.46 0.567)" fill="#fff"/>
      <path id="Path_22" data-name="Path 22" d="M17.91,6.558,6.457,25.924H0L14.682,1.09Z" transform="translate(0 0.044)" fill="#fff"/>
      <path id="Path_23" data-name="Path 23" d="M18.2,19.841l3.134,5.3H7.407l3.138-5.3Z" transform="translate(0.309 0.826)" fill="#fff"/>
      <path id="Path_24" data-name="Path 24" d="M55,18.685,58.3,1.289h5.021L57.893,25.738h-5.07L48.842,9.383,44.864,25.738H39.792L34.368,1.289h5.021L42.7,18.652,46.727,1.289h4.265Z" transform="translate(1.435 0.052)" fill="#fff"/>
      <path id="Path_25" data-name="Path 25" d="M64.66,2.906a2.388,2.388,0,0,1,.731-1.8,3.148,3.148,0,0,1,3.971,0,2.378,2.378,0,0,1,.739,1.8,2.381,2.381,0,0,1-.747,1.813,3.113,3.113,0,0,1-3.946,0,2.378,2.378,0,0,1-.748-1.813m5.156,22.869H64.946V7.608h4.869Z" transform="translate(2.699 0.015)" fill="#fff"/>
      <path id="Path_26" data-name="Path 26" d="M78.146,7.331l.151,2.1A6.344,6.344,0,0,1,83.519,7a5.268,5.268,0,0,1,4.3,1.7,7.9,7.9,0,0,1,1.444,5.07V25.5H84.409V13.88a3.149,3.149,0,0,0-.672-2.242,3.008,3.008,0,0,0-2.232-.7,3.338,3.338,0,0,0-3.073,1.747V25.5H73.579V7.331Z" transform="translate(3.071 0.29)" fill="#fff"/>
      <path id="Path_27" data-name="Path 27" d="M91.67,16.573a10.944,10.944,0,0,1,1.905-6.766,6.184,6.184,0,0,1,5.214-2.519,5.565,5.565,0,0,1,4.383,1.981V0h4.869V25.791h-4.383l-.234-1.93a5.714,5.714,0,0,1-4.668,2.267A6.168,6.168,0,0,1,93.609,23.6a11.3,11.3,0,0,1-1.939-7.028m4.852.361a7.173,7.173,0,0,0,.89,3.918A2.9,2.9,0,0,0,100,22.215a3.247,3.247,0,0,0,3.173-1.9V13.134a3.2,3.2,0,0,0-3.14-1.9q-3.51,0-3.51,5.7" transform="translate(3.827 -0.002)" fill="#fff"/>
      <rect id="Rectangle_2" data-name="Rectangle 2" width="4.87" height="25.791" transform="translate(116.121 -0.001)" fill="#fff"/>
      <path id="Path_28" data-name="Path 28" d="M128.6,25.835a8.917,8.917,0,0,1-6.507-2.451,8.713,8.713,0,0,1-2.511-6.532v-.47a10.976,10.976,0,0,1,1.058-4.9,7.763,7.763,0,0,1,3-3.324,8.411,8.411,0,0,1,4.424-1.168,7.544,7.544,0,0,1,5.869,2.351,9.551,9.551,0,0,1,2.141,6.666v1.981H124.5a4.506,4.506,0,0,0,1.419,2.854,4.289,4.289,0,0,0,3,1.075,5.236,5.236,0,0,0,4.383-2.032l2.385,2.67a7.281,7.281,0,0,1-2.955,2.41,9.7,9.7,0,0,1-4.131.865m-.554-14.927a3.03,3.03,0,0,0-2.342.978,5.071,5.071,0,0,0-1.151,2.8H131.3V14.3a3.617,3.617,0,0,0-.873-2.5,3.128,3.128,0,0,0-2.385-.885" transform="translate(4.992 0.29)" fill="#fff"/>
      <path id="Path_29" data-name="Path 29" d="M144.481,18.619l3.359-11.3h5.2l-7.3,20.989-.4.957a5.538,5.538,0,0,1-5.373,3.56,7.637,7.637,0,0,1-2.149-.319V28.828l.739.017a3.99,3.99,0,0,0,2.057-.42,2.756,2.756,0,0,0,1.066-1.394l.571-1.494L135.883,7.318h5.222Z" transform="translate(5.672 0.304)" fill="#fff"/>
      <path id="Path_30" data-name="Path 30" d="M177.892,15.143H168.22v6.548h11.351v4.047H163.182V1.289h16.354V5.37H168.22V11.2h9.672Z" transform="translate(6.812 0.052)" fill="#fff"/>
      <rect id="Rectangle_3" data-name="Rectangle 3" width="4.869" height="25.791" transform="translate(189.512 -0.001)" fill="#fff"/>
      <path id="Path_31" data-name="Path 31" d="M197.516,18.619l3.359-11.3h5.2l-7.3,20.989-.4.957A5.538,5.538,0,0,1,193,32.824a7.637,7.637,0,0,1-2.149-.319V28.828l.739.017a3.99,3.99,0,0,0,2.057-.42,2.756,2.756,0,0,0,1.066-1.394l.571-1.494L188.918,7.318h5.222Z" transform="translate(7.886 0.304)" fill="#fff"/>
      <rect id="Rectangle_4" data-name="Rectangle 4" width="5.038" height="24.448" transform="translate(225.563 1.343)" fill="#fff"/>
      <path id="Path_32" data-name="Path 32" d="M230.236,7.331l.151,2.1A6.344,6.344,0,0,1,235.609,7a5.268,5.268,0,0,1,4.3,1.7,7.91,7.91,0,0,1,1.445,5.07V25.5H236.5V13.88a3.149,3.149,0,0,0-.672-2.242,3.008,3.008,0,0,0-2.232-.7,3.338,3.338,0,0,0-3.073,1.747V25.5h-4.852V7.331Z" transform="translate(9.42 0.29)" fill="#fff"/>
      <path id="Path_33" data-name="Path 33" d="M252.071,21.923a3.177,3.177,0,0,0,2.181-.739,2.59,2.59,0,0,0,.874-1.965h4.55A6.238,6.238,0,0,1,258.67,22.6a6.651,6.651,0,0,1-2.713,2.385,8.493,8.493,0,0,1-3.8.848,7.884,7.884,0,0,1-6.145-2.477,9.8,9.8,0,0,1-2.251-6.842V16.2a9.692,9.692,0,0,1,2.233-6.7A7.8,7.8,0,0,1,252.12,7a7.647,7.647,0,0,1,5.467,1.939,6.875,6.875,0,0,1,2.09,5.164h-4.55a3.335,3.335,0,0,0-.874-2.3,3.244,3.244,0,0,0-4.776.35,7.157,7.157,0,0,0-.865,4.011v.5a7.246,7.246,0,0,0,.857,4.037,2.957,2.957,0,0,0,2.6,1.227" transform="translate(10.175 0.29)" fill="#fff"/>
      <path id="Path_34" data-name="Path 34" d="M262.172,22.573a2.442,2.442,0,0,1,.781-1.88,3.033,3.033,0,0,1,3.928,0,2.448,2.448,0,0,1,.779,1.88,2.418,2.418,0,0,1-.77,1.855,2.809,2.809,0,0,1-1.983.714,2.779,2.779,0,0,1-1.964-.714,2.4,2.4,0,0,1-.772-1.855" transform="translate(10.944 0.832)" fill="#fff"/>
    </g>
  </g>
</svg>
